name Walk5.mot
datacolumns 19
datarows 10
range 1.61800000 1.62700000
endheader

                time	   L_ground_force_vx	   L_ground_force_vy	   L_ground_force_vz	   L_ground_force_px	   L_ground_force_py	   L_ground_force_pz	   R_ground_force_vx	   R_ground_force_vy	   R_ground_force_vz	   R_ground_force_px	   R_ground_force_py	   R_ground_force_pz	   L_ground_torque_x	   L_ground_torque_y	   L_ground_torque_z	   R_ground_torque_x	   R_ground_torque_y	   R_ground_torque_z	
          1.61800000	          0.00000000	          0.00000000	          0.00000000	          0.00000000	          0.00000000	          0.00000000	         27.38512879	        526.28036612	         36.41668388	         -0.30614928	          0.00000000	         -0.09134060	          0.00000000	          0.00000000	          0.00000000	          0.00000000	          0.01108304	          0.00000000	
          1.61900000	          0.00000000	          0.00000000	          0.00000000	          0.00000000	          0.00000000	          0.00000000	         27.53910314	        527.73218218	         36.53496159	         -0.30553262	          0.00000000	         -0.09157601	          0.00000000	          0.00000000	          0.00000000	          0.00000000	          0.02661791	          0.00000000	
          1.62000000	          0.00000000	          0.00000000	          0.00000000	          0.00000000	          0.00000000	          0.00000000	         27.68777254	        529.29005493	         36.68310591	         -0.30490240	          0.00000000	         -0.09181613	          0.00000000	          0.00000000	          0.00000000	          0.00000000	          0.03876979	          0.00000000	
          1.62100000	          0.00000000	          0.00000000	          0.00000000	          0.00000000	          0.00000000	          0.00000000	         27.82570829	        530.94070986	         36.85936494	         -0.30427434	          0.00000000	         -0.09203080	          0.00000000	          0.00000000	          0.00000000	          0.00000000	          0.04178633	          0.00000000	
          1.62200000	          0.00000000	          0.00000000	          0.00000000	          0.00000000	          0.00000000	          0.00000000	         27.95118448	        532.65696800	         37.05020679	         -0.30365143	          0.00000000	         -0.09222695	          0.00000000	          0.00000000	          0.00000000	          0.00000000	          0.03449240	          0.00000000	
          1.62300000	          0.00000000	          0.00000000	          0.00000000	          0.00000000	          0.00000000	          0.00000000	         28.06467100	        534.38789922	         37.23406591	         -0.30304859	          0.00000000	         -0.09242656	          0.00000000	          0.00000000	          0.00000000	          0.00000000	          0.01938657	          0.00000000	
          1.62400000	          0.00000000	          0.00000000	          0.00000000	          0.00000000	          0.00000000	          0.00000000	         28.17431711	        536.09963065	         37.38995372	         -0.30249457	          0.00000000	         -0.09262810	          0.00000000	          0.00000000	          0.00000000	          0.00000000	         -0.00098103	          0.00000000	
          1.62500000	          0.00000000	          0.00000000	          0.00000000	          0.00000000	          0.00000000	          0.00000000	         28.29244529	        537.80857817	         37.50994105	         -0.30199760	          0.00000000	         -0.09279960	          0.00000000	          0.00000000	          0.00000000	          0.00000000	         -0.02531199	          0.00000000	
          1.62600000	          0.00000000	          0.00000000	          0.00000000	          0.00000000	          0.00000000	          0.00000000	         28.42328740	        539.56134061	         37.60196637	         -0.30152969	          0.00000000	         -0.09290599	          0.00000000	          0.00000000	          0.00000000	          0.00000000	         -0.04967550	          0.00000000	
          1.62700000	          0.00000000	          0.00000000	          0.00000000	          0.00000000	          0.00000000	          0.00000000	         28.55719190	        541.38801844	         37.67918736	         -0.30105102	          0.00000000	         -0.09293148	          0.00000000	          0.00000000	          0.00000000	          0.00000000	         -0.06624471	          0.00000000	
